<svg width="22" height="20" viewBox="0 0 22 20" fill="none" xmlns="http://www.w3.org/2000/svg">
<path fill-rule="evenodd" clip-rule="evenodd" d="M20.8191 0.0626039C20.7009 0.0964169 18.4865 0.998912 15.8981 2.06821C13.3098 3.13746 8.86165 4.97495 6.01332 6.15148C3.16499 7.32806 0.727002 8.34743 0.595577 8.41677C0.334274 8.55465 0.0572843 8.84435 0.0143068 9.02468C-0.056864 9.32343 0.142766 9.70384 0.495913 9.94239C0.734137 10.1033 5.51328 11.8247 5.63413 11.7931C5.67375 11.7828 8.51465 9.89594 11.9472 7.60019C15.3797 5.30444 18.2419 3.40638 18.3075 3.3823C18.4734 3.32142 18.6956 3.35247 18.7501 3.44418C18.8727 3.6504 19.1022 3.42354 11.2466 10.8588C8.82031 13.1552 8.64517 13.3308 8.71274 13.3993C8.7527 13.4397 10.5646 14.906 12.7393 16.6576C15.6917 19.0356 16.7477 19.8622 16.9081 19.9208C17.2202 20.0349 17.5909 20.025 17.8536 19.8956C18.0569 19.7955 18.3696 19.489 18.4699 19.2917C18.5185 19.1961 22.0016 0.759052 22 0.605921C21.998 0.415083 21.8424 0.147929 21.6883 0.0709326C21.5057 -0.0203218 21.1218 -0.0239882 20.8191 0.0626039Z" fill="#C0C2D7"/>
</svg>
