<svg width="23" height="20" viewBox="0 0 23 20" fill="none" xmlns="http://www.w3.org/2000/svg">
<path d="M0.625 1.25C0.625 0.559644 1.16599 0 1.83333 0H21.1667C21.834 0 22.375 0.559644 22.375 1.25C22.375 1.94036 21.834 2.5 21.1667 2.5H1.83333C1.16599 2.5 0.625 1.94036 0.625 1.25ZM0.625 10C0.625 9.30964 1.16599 8.75 1.83333 8.75H21.1667C21.834 8.75 22.375 9.30964 22.375 10C22.375 10.6904 21.834 11.25 21.1667 11.25H1.83333C1.16599 11.25 0.625 10.6904 0.625 10ZM0.625 18.75C0.625 18.0596 1.16599 17.5 1.83333 17.5H21.1667C21.834 17.5 22.375 18.0596 22.375 18.75C22.375 19.4404 21.834 20 21.1667 20H1.83333C1.16599 20 0.625 19.4404 0.625 18.75Z" fill="white"/>
</svg>
