<svg width="34" height="36" viewBox="0 0 34 36" fill="none" xmlns="http://www.w3.org/2000/svg">
<path d="M33.6673 25.3366C33.6666 27.6159 32.8875 29.8265 31.459 31.6026C30.0306 33.3787 28.0384 34.6138 25.8123 35.1033L24.749 31.9133C25.7227 31.7529 26.6487 31.3785 27.4603 30.8171C28.2719 30.2556 28.9488 29.5212 29.4423 28.6666H25.334C24.4499 28.6666 23.6021 28.3154 22.977 27.6903C22.3518 27.0652 22.0007 26.2173 22.0007 25.3333V18.6666C22.0007 17.7825 22.3518 16.9347 22.977 16.3096C23.6021 15.6844 24.4499 15.3333 25.334 15.3333H30.2307C29.8239 12.1114 28.2555 9.14871 25.8197 7.00105C23.3839 4.85338 20.2481 3.66838 17.0007 3.66838C13.7532 3.66838 10.6174 4.85338 8.18161 7.00105C5.74578 9.14871 4.17737 12.1114 3.77065 15.3333H8.66732C9.55137 15.3333 10.3992 15.6844 11.0243 16.3096C11.6495 16.9347 12.0007 17.7825 12.0007 18.6666V25.3333C12.0007 26.2173 11.6495 27.0652 11.0243 27.6903C10.3992 28.3154 9.55137 28.6666 8.66732 28.6666H3.66732C2.78326 28.6666 1.93542 28.3154 1.31029 27.6903C0.685174 27.0652 0.333984 26.2173 0.333984 25.3333V16.9999C0.333984 7.79492 7.79565 0.333252 17.0007 0.333252C26.2057 0.333252 33.6673 7.79492 33.6673 16.9999V25.3366ZM30.334 25.3333V18.6666H25.334V25.3333H30.334ZM3.66732 18.6666V25.3333H8.66732V18.6666H3.66732Z" fill="#F4683F"/>
</svg>
