<svg width="22" height="22" viewBox="0 0 22 22" fill="none" xmlns="http://www.w3.org/2000/svg">
<path d="M11.3799 7.50675C10.5394 7.50675 9.73335 7.84063 9.13904 8.43494C8.54473 9.02925 8.21085 9.83531 8.21085 10.6758C8.21085 11.5163 8.54473 12.3223 9.13904 12.9167C9.73335 13.511 10.5394 13.8448 11.3799 13.8448C12.2204 13.8448 13.0264 13.511 13.6208 12.9167C14.2151 12.3223 14.5489 11.5163 14.5489 10.6758C14.5489 9.83531 14.2151 9.02925 13.6208 8.43494C13.0264 7.84063 12.2204 7.50675 11.3799 7.50675ZM11.3799 5.39405C12.7807 5.39405 14.1241 5.95052 15.1147 6.94104C16.1052 7.93156 16.6616 9.27499 16.6616 10.6758C16.6616 12.0766 16.1052 13.42 15.1147 14.4106C14.1241 15.4011 12.7807 15.9575 11.3799 15.9575C9.97909 15.9575 8.63566 15.4011 7.64514 14.4106C6.65462 13.42 6.09815 12.0766 6.09815 10.6758C6.09815 9.27499 6.65462 7.93156 7.64514 6.94104C8.63566 5.95052 9.97909 5.39405 11.3799 5.39405ZM18.2462 5.12996C18.2462 5.48016 18.107 5.81602 17.8594 6.06365C17.6118 6.31128 17.2759 6.4504 16.9257 6.4504C16.5755 6.4504 16.2397 6.31128 15.992 6.06365C15.7444 5.81602 15.6053 5.48016 15.6053 5.12996C15.6053 4.77976 15.7444 4.4439 15.992 4.19627C16.2397 3.94864 16.5755 3.80953 16.9257 3.80953C17.2759 3.80953 17.6118 3.94864 17.8594 4.19627C18.107 4.4439 18.2462 4.77976 18.2462 5.12996ZM11.3799 2.225C8.76649 2.225 8.33972 2.2324 7.12387 2.28627C6.29569 2.32536 5.74005 2.43627 5.22455 2.63698C4.7661 2.81445 4.43546 3.02677 4.08369 3.37959C3.75306 3.69903 3.49885 4.08902 3.34002 4.52045C3.13932 5.03806 3.0284 5.59264 2.99037 6.41977C2.93544 7.58598 2.9291 7.99373 2.9291 10.6758C2.9291 13.2892 2.9365 13.716 2.99037 14.9318C3.02946 15.7589 3.14037 16.3156 3.34002 16.8301C3.5196 17.2896 3.73087 17.6202 4.08158 17.9709C4.43757 18.3259 4.76821 18.5382 5.22244 18.7136C5.74427 18.9153 6.29991 19.0273 7.12387 19.0653C8.29008 19.1203 8.69783 19.1266 11.3799 19.1266C13.9933 19.1266 14.4201 19.1192 15.6359 19.0653C16.462 19.0262 17.0187 18.9153 17.5342 18.7157C17.9916 18.5371 18.3243 18.3248 18.675 17.9741C19.031 17.6181 19.2434 17.2875 19.4187 16.8333C19.6194 16.3125 19.7314 15.7558 19.7694 14.9318C19.8244 13.7656 19.8307 13.3579 19.8307 10.6758C19.8307 8.06239 19.8233 7.63562 19.7694 6.41977C19.7303 5.5937 19.6194 5.03595 19.4187 4.52045C19.2595 4.08946 19.0058 3.69962 18.6761 3.37959C18.3568 3.04879 17.9668 2.79455 17.5352 2.63592C17.0176 2.43522 16.462 2.3243 15.6359 2.28627C14.4697 2.23134 14.062 2.225 11.3799 2.225ZM11.3799 0.112305C14.25 0.112305 14.6081 0.122868 15.7342 0.175686C16.8592 0.228503 17.625 0.404914 18.299 0.666888C18.9962 0.935201 19.5835 1.29858 20.1708 1.88486C20.708 2.41292 21.1236 3.05169 21.3888 3.75671C21.6497 4.4296 21.8272 5.19651 21.88 6.32152C21.9297 7.44759 21.9434 7.8057 21.9434 10.6758C21.9434 13.5459 21.9328 13.904 21.88 15.0301C21.8272 16.1551 21.6497 16.9209 21.3888 17.5949C21.1244 18.3003 20.7086 18.9392 20.1708 19.4667C19.6426 20.0037 19.0039 20.4193 18.299 20.6847C17.6261 20.9456 16.8592 21.1231 15.7342 21.1759C14.6081 21.2256 14.25 21.2393 11.3799 21.2393C8.5098 21.2393 8.15169 21.2287 7.02563 21.1759C5.90061 21.1231 5.13476 20.9456 4.46081 20.6847C3.75551 20.4201 3.11664 20.0044 2.58896 19.4667C2.05171 18.9388 1.63606 18.3 1.37099 17.5949C1.10902 16.922 0.932605 16.1551 0.879787 15.0301C0.830139 13.904 0.816406 13.5459 0.816406 10.6758C0.816406 7.8057 0.82697 7.44759 0.879787 6.32152C0.932605 5.19546 1.10902 4.43066 1.37099 3.75671C1.63533 3.05126 2.05107 2.41232 2.58896 1.88486C3.11679 1.34742 3.75562 0.931746 4.46081 0.666888C5.13476 0.404914 5.89956 0.228503 7.02563 0.175686C8.15169 0.126037 8.5098 0.112305 11.3799 0.112305Z" fill="#C0C2D7"/>
</svg>
