<svg width="31" height="36" viewBox="0 0 31 36" fill="none" xmlns="http://www.w3.org/2000/svg">
<path d="M23.7343 25.0984L24.0277 25.3934L24.3243 25.0984C24.6726 24.7502 25.086 24.474 25.5409 24.2855C25.9959 24.0971 26.4836 24.0001 26.976 24.0001C27.4685 24.0001 27.9561 24.0971 28.4111 24.2855C28.8661 24.474 29.2795 24.7502 29.6277 25.0984C29.9759 25.4466 30.2521 25.86 30.4406 26.315C30.629 26.77 30.726 27.2576 30.726 27.7501C30.726 28.2425 30.629 28.7302 30.4406 29.1852C30.2521 29.6401 29.9759 30.0535 29.6277 30.4017L24.0277 36.0001L18.431 30.4017C17.7278 29.6985 17.3327 28.7446 17.3327 27.7501C17.3327 26.7555 17.7278 25.8017 18.431 25.0984C19.1343 24.3951 20.0881 24.0001 21.0827 24.0001C22.0772 24.0001 23.0311 24.3951 23.7343 25.0984ZM13.9993 22.3334V25.6667C11.3472 25.6667 8.80365 26.7203 6.92828 28.5957C5.05292 30.471 3.99935 33.0146 3.99935 35.6667H0.666016C0.666056 32.2027 2.01424 28.8747 4.42513 26.3872C6.83602 23.8998 10.1203 22.4483 13.5827 22.3401L13.9993 22.3334ZM13.9993 0.666748C19.5243 0.666748 23.9993 5.14175 23.9993 10.6667C24.0003 13.2543 22.9978 15.7414 21.2028 17.6051C19.4078 19.4688 16.9601 20.5639 14.3743 20.6601L13.9993 20.6667C8.47435 20.6667 3.99935 16.1917 3.99935 10.6667C3.99842 8.0792 5.00085 5.59209 6.79586 3.7284C8.59086 1.8647 11.0386 0.769617 13.6243 0.673415L13.9993 0.666748ZM13.9993 4.00008C10.316 4.00008 7.33268 6.98341 7.33268 10.6667C7.33268 14.3501 10.316 17.3334 13.9993 17.3334C17.6827 17.3334 20.666 14.3501 20.666 10.6667C20.666 6.98341 17.6827 4.00008 13.9993 4.00008Z" fill="#F4683F"/>
</svg>
