<svg width="34" height="34" viewBox="0 0 34 34" fill="none" xmlns="http://www.w3.org/2000/svg">
<path d="M28.3333 0.333374C29.2533 0.333374 30 1.08004 30 2.00004V8.26171L26.6667 11.595V3.66671H3.33333V30.3334H26.6667V25.7367L30 22.4034V32C30 32.92 29.2533 33.6667 28.3333 33.6667H1.66667C0.746667 33.6667 0 32.92 0 32V2.00004C0 1.08004 0.746667 0.333374 1.66667 0.333374H28.3333ZM31.2967 11.68L33.6533 14.0367L20.69 27L18.33 26.9967L18.3333 24.6434L31.2967 11.68ZM16.6667 17V20.3334H8.33333V17H16.6667ZM21.6667 10.3334V13.6667H8.33333V10.3334H21.6667Z" fill="#F4683F"/>
</svg>
