<svg width="23" height="24" viewBox="0 0 23 24" fill="none" xmlns="http://www.w3.org/2000/svg">
<path fill-rule="evenodd" clip-rule="evenodd" d="M10.1783 0.744411C4.86123 1.39745 0.682406 5.63605 0.132143 10.9343C0.0506033 11.7196 0.0999909 13.2064 0.232608 13.9568C0.442517 15.1451 0.789871 16.1905 1.32975 17.2588L1.60102 17.7958L0.792719 20.7299C0.348135 22.3437 -0.00848781 23.6693 0.000153798 23.6757C0.00884368 23.682 1.36287 23.3336 3.00912 22.9014C5.40569 22.2721 6.02634 22.1246 6.123 22.1612C6.18938 22.1863 6.50438 22.3244 6.82301 22.468C7.85788 22.9344 8.94465 23.2437 10.0882 23.3973C10.8829 23.5042 12.2777 23.5035 13.0508 23.396C15.5883 23.043 17.8553 21.9278 19.6422 20.1537C20.5766 19.226 21.1979 18.3774 21.7895 17.2212C22.3221 16.1799 22.698 15.0449 22.908 13.843C23.0308 13.1405 23.0306 11.0764 22.9077 10.3403C22.7001 9.0966 22.3796 8.10298 21.8321 7.00547C20.2738 3.88224 17.3963 1.65584 13.9557 0.911439C12.8831 0.679395 11.2836 0.608668 10.1783 0.744411ZM13.1956 2.73032C14.5805 2.98486 15.7288 3.44468 16.8647 4.1994C18.8038 5.48793 20.2312 7.4888 20.7954 9.70925C21.2097 11.3399 21.1772 13.192 20.7065 14.7599C19.9457 17.2952 18.1321 19.4292 15.7589 20.5819C14.3792 21.252 13.1025 21.5442 11.5542 21.5442C9.7796 21.5442 8.20649 21.1163 6.60099 20.1966L6.33064 20.0418L4.55389 20.5058C3.57667 20.7609 2.76972 20.9624 2.76064 20.9534C2.75156 20.9444 2.95206 20.1844 3.20619 19.2645C3.46027 18.3446 3.67004 17.5582 3.6723 17.5169C3.67457 17.4755 3.54963 17.2366 3.39466 16.9859C1.11782 13.3029 1.71457 8.44582 4.8213 5.37406C6.3667 3.84606 8.32318 2.90704 10.5162 2.64073C11.1085 2.56881 12.5855 2.61818 13.1956 2.73032ZM7.04736 6.91699C6.76817 7.05437 6.25803 7.65319 6.04474 8.09391C5.62579 8.95961 5.63433 10.0509 6.06796 11.0613C6.60084 12.303 7.99509 14.0662 9.37147 15.2387C10.3362 16.0605 11.1423 16.5421 12.3266 17.004C13.5364 17.476 13.7685 17.5303 14.5715 17.53C15.2031 17.5297 15.3033 17.5178 15.597 17.4078C16.0799 17.227 16.4403 16.9992 16.7993 16.648C17.0778 16.3754 17.1339 16.2901 17.2251 16.0002C17.3389 15.6387 17.4039 15.0571 17.353 14.8557C17.3264 14.7504 17.19 14.6649 16.5042 14.3236C15.2475 13.6983 14.741 13.4831 14.5257 13.4831C14.3494 13.4831 14.3193 13.5046 14.1061 13.783C13.6186 14.4194 13.1713 14.9122 13.0548 14.9413C12.9152 14.9761 12.6409 14.8763 12.0075 14.5601C10.9819 14.0482 10.1452 13.3636 9.42578 12.4479C9.03425 11.9496 8.68168 11.3816 8.68168 11.2493C8.68168 11.1927 8.8632 10.911 9.08509 10.6234C9.51992 10.0596 9.64723 9.84926 9.64723 9.69442C9.64723 9.6401 9.55294 9.37452 9.4377 9.10428C9.32246 8.83399 9.09006 8.27821 8.92123 7.86916C8.71195 7.36218 8.56505 7.07577 8.4597 6.96949L8.30512 6.81354L7.78131 6.81359C7.34223 6.81359 7.22352 6.83034 7.04736 6.91699Z" fill="#C0C2D7"/>
</svg>
