<svg width="29" height="21" viewBox="0 0 29 21" fill="none" xmlns="http://www.w3.org/2000/svg">
<path fill-rule="evenodd" clip-rule="evenodd" d="M11.9788 0.685726C7.11958 0.836849 4.95137 0.987485 3.82601 1.25232C2.95294 1.45775 2.24144 1.86195 1.61114 2.51057C0.944093 3.19694 0.639478 3.78681 0.420941 4.81559C-0.141002 7.46027 -0.140153 13.8859 0.422527 16.5339C0.639875 17.5569 0.954286 18.1654 1.60956 18.8314C2.2659 19.4985 3.0679 19.9276 4.01403 20.118C5.97593 20.5125 12.714 20.775 17.4153 20.6399C22.0152 20.5078 24.3567 20.3298 25.4002 20.0328C26.7937 19.6362 27.8999 18.6193 28.3755 17.2978C29.0985 15.2884 29.225 7.96118 28.59 4.87732C28.3623 3.77165 27.9345 2.98576 27.2026 2.32815C26.5577 1.74884 25.8502 1.39721 24.9819 1.22459C24.0281 1.03492 21.97 0.86441 19.3973 0.761856C17.9571 0.704461 13.0091 0.653671 11.9788 0.685726ZM17.5285 2.87406C22.0099 3.0012 24.3105 3.19336 25.0228 3.5001C25.591 3.74479 26.0053 4.15798 26.1995 4.67368C26.3496 5.07219 26.4972 5.90984 26.5992 6.94133C26.725 8.21432 26.7434 12.6606 26.6283 14.001C26.4944 15.5609 26.327 16.4875 26.1033 16.9067C25.8165 17.4442 25.2403 17.8576 24.5736 18.004C22.9864 18.3526 16.2053 18.5998 11.6956 18.4734C8.05115 18.3713 5.51654 18.2058 4.51713 18.0049C3.47615 17.7956 2.86392 17.1782 2.64074 16.1127C2.14149 13.7294 2.14149 7.61264 2.64074 5.22927C2.76182 4.65126 2.96421 4.25783 3.31085 3.92661C3.84957 3.41179 4.34905 3.27198 6.18795 3.12129C9.23275 2.87173 13.8768 2.77053 17.5285 2.87406ZM11.6107 15.0693L19.4688 10.6614C19.4688 10.6614 19.4688 10.6614 11.6107 6.28058V15.0693Z" fill="#C0C2D7"/>
</svg>
